<svg width="155" height="28" viewBox="0 0 155 28" fill="none" xmlns="http://www.w3.org/2000/svg">
<path d="M7.00439 22.8813H19.5483V27H0.595703V23.9922L12.9004 6.27002H0.612793V2.11719H19.2749V5.05664L7.00439 22.8813ZM30.6055 27.3418C27.8939 27.3418 25.6836 26.5101 23.9746 24.8467C22.277 23.1833 21.4282 20.9673 21.4282 18.1987V17.7202C21.4282 15.8631 21.7871 14.2054 22.5049 12.7471C23.2227 11.2773 24.2367 10.1494 25.5469 9.36328C26.8685 8.56576 28.3724 8.16699 30.0586 8.16699C32.5879 8.16699 34.576 8.96452 36.0229 10.5596C37.4813 12.1546 38.2104 14.4162 38.2104 17.3442V19.3608H26.4355C26.5951 20.5685 27.0736 21.5369 27.8711 22.2661C28.68 22.9953 29.6997 23.3599 30.9302 23.3599C32.8328 23.3599 34.3197 22.6706 35.3906 21.292L37.8174 24.0093C37.0768 25.0575 36.0742 25.8778 34.8096 26.4702C33.5449 27.0513 32.1436 27.3418 30.6055 27.3418ZM30.0415 12.166C29.0617 12.166 28.2642 12.4964 27.6489 13.1572C27.0451 13.818 26.6577 14.7637 26.4868 15.9941H33.3569V15.6011C33.3341 14.5073 33.0379 13.6642 32.4683 13.0718C31.8986 12.4679 31.0897 12.166 30.0415 12.166ZM45.5762 8.50879L45.73 10.645C47.0516 8.993 48.8232 8.16699 51.0449 8.16699C53.0046 8.16699 54.4629 8.74235 55.4199 9.89307C56.377 11.0438 56.8669 12.7642 56.8896 15.0542V27H51.9507V15.1738C51.9507 14.1257 51.7228 13.368 51.2671 12.9009C50.8114 12.4224 50.0537 12.1831 48.9941 12.1831C47.6042 12.1831 46.5617 12.7756 45.8667 13.9604V27H40.9277V8.50879H45.5762ZM60.9741 27V2.11719H69.6899C72.7091 2.11719 74.9992 2.69824 76.5601 3.86035C78.1209 5.01107 78.9014 6.70296 78.9014 8.93604C78.9014 10.1551 78.5881 11.2318 77.9614 12.166C77.3348 13.0889 76.4632 13.7668 75.3467 14.1997C76.6227 14.5187 77.6253 15.1624 78.3545 16.1309C79.0951 17.0993 79.4653 18.2842 79.4653 19.6855C79.4653 22.0781 78.702 23.8896 77.1753 25.1201C75.6486 26.3506 73.4725 26.9772 70.647 27H60.9741ZM66.1011 16.165V22.8813H70.4932C71.7008 22.8813 72.6408 22.5965 73.313 22.0269C73.9966 21.4458 74.3384 20.6483 74.3384 19.6343C74.3384 17.3556 73.1592 16.1992 70.8008 16.165H66.1011ZM66.1011 12.542H69.895C72.4813 12.4964 73.7744 11.4653 73.7744 9.44873C73.7744 8.3208 73.444 7.51188 72.7832 7.02197C72.1338 6.52067 71.1027 6.27002 69.6899 6.27002H66.1011V12.542ZM94.0771 25.1201C92.8581 26.6012 91.1719 27.3418 89.0186 27.3418C87.0361 27.3418 85.5208 26.7721 84.4727 25.6328C83.4359 24.4935 82.9061 22.8244 82.8833 20.6255V8.50879H87.8223V20.4546C87.8223 22.38 88.6995 23.3428 90.4541 23.3428C92.1289 23.3428 93.2796 22.7617 93.9062 21.5996V8.50879H98.8623V27H94.2139L94.0771 25.1201ZM110.278 23.3599C111.19 23.3599 111.93 23.1092 112.5 22.6079C113.07 22.1066 113.366 21.4401 113.389 20.6084H118.02C118.009 21.8617 117.667 23.0124 116.995 24.0605C116.322 25.0973 115.4 25.9062 114.226 26.4873C113.064 27.057 111.777 27.3418 110.364 27.3418C107.721 27.3418 105.636 26.5044 104.109 24.8296C102.582 23.1434 101.819 20.8192 101.819 17.8569V17.5322C101.819 14.6839 102.576 12.411 104.092 10.7134C105.607 9.01579 107.686 8.16699 110.33 8.16699C112.642 8.16699 114.494 8.8278 115.884 10.1494C117.285 11.4596 117.997 13.2085 118.02 15.396H113.389C113.366 14.439 113.07 13.6642 112.5 13.0718C111.93 12.4679 111.178 12.166 110.244 12.166C109.093 12.166 108.222 12.5876 107.629 13.4307C107.048 14.2624 106.758 15.6182 106.758 17.498V18.0107C106.758 19.9134 107.048 21.2806 107.629 22.1123C108.21 22.944 109.093 23.3599 110.278 23.3599ZM127.556 19.583L125.779 21.3604V27H120.84V0.75H125.779V15.2935L126.736 14.063L131.47 8.50879H137.4L130.718 16.2163L137.981 27H132.307L127.556 19.583ZM149.551 21.8901C149.551 21.2863 149.249 20.8135 148.645 20.4717C148.053 20.1185 147.096 19.8052 145.774 19.5317C141.376 18.6089 139.177 16.7404 139.177 13.9263C139.177 12.2856 139.855 10.9185 141.211 9.82471C142.578 8.71956 144.361 8.16699 146.56 8.16699C148.907 8.16699 150.781 8.71956 152.183 9.82471C153.595 10.9299 154.302 12.3654 154.302 14.1313H149.363C149.363 13.425 149.135 12.8439 148.679 12.3882C148.223 11.9211 147.511 11.6875 146.543 11.6875C145.711 11.6875 145.068 11.8755 144.612 12.2515C144.156 12.6274 143.928 13.106 143.928 13.687C143.928 14.2339 144.185 14.6782 144.697 15.02C145.221 15.3504 146.099 15.641 147.329 15.8916C148.56 16.1309 149.596 16.4043 150.439 16.7119C153.049 17.6689 154.353 19.3267 154.353 21.6851C154.353 23.3713 153.63 24.7384 152.183 25.7866C150.736 26.8234 148.867 27.3418 146.577 27.3418C145.028 27.3418 143.649 27.0684 142.441 26.5215C141.245 25.9632 140.305 25.2056 139.622 24.2485C138.938 23.2801 138.596 22.2376 138.596 21.1211H143.279C143.324 21.9984 143.649 22.6706 144.253 23.1377C144.857 23.6048 145.666 23.8384 146.68 23.8384C147.625 23.8384 148.337 23.6618 148.816 23.3086C149.306 22.944 149.551 22.4712 149.551 21.8901Z" fill="black"/>
</svg>
