<svg width="157" height="33" viewBox="0 0 157 33" fill="none" xmlns="http://www.w3.org/2000/svg">
<mask id="mask0" mask-type="alpha" maskUnits="userSpaceOnUse" x="1" y="5" width="155" height="28">
<path d="M8.00439 27.8813H20.5483V32H1.5957V28.9922L13.9004 11.27H1.61279V7.11719H20.2749V10.0566L8.00439 27.8813ZM31.6055 32.3418C28.8939 32.3418 26.6836 31.5101 24.9746 29.8467C23.277 28.1833 22.4282 25.9673 22.4282 23.1987V22.7202C22.4282 20.8631 22.7871 19.2054 23.5049 17.7471C24.2227 16.2773 25.2367 15.1494 26.5469 14.3633C27.8685 13.5658 29.3724 13.167 31.0586 13.167C33.5879 13.167 35.576 13.9645 37.0229 15.5596C38.4813 17.1546 39.2104 19.4162 39.2104 22.3442V24.3608H27.4355C27.5951 25.5685 28.0736 26.5369 28.8711 27.2661C29.68 27.9953 30.6997 28.3599 31.9302 28.3599C33.8328 28.3599 35.3197 27.6706 36.3906 26.292L38.8174 29.0093C38.0768 30.0575 37.0742 30.8778 35.8096 31.4702C34.5449 32.0513 33.1436 32.3418 31.6055 32.3418ZM31.0415 17.166C30.0617 17.166 29.2642 17.4964 28.6489 18.1572C28.0451 18.818 27.6577 19.7637 27.4868 20.9941H34.3569V20.6011C34.3341 19.5073 34.0379 18.6642 33.4683 18.0718C32.8986 17.4679 32.0897 17.166 31.0415 17.166ZM46.5762 13.5088L46.73 15.645C48.0516 13.993 49.8232 13.167 52.0449 13.167C54.0046 13.167 55.4629 13.7424 56.4199 14.8931C57.377 16.0438 57.8669 17.7642 57.8896 20.0542V32H52.9507V20.1738C52.9507 19.1257 52.7228 18.368 52.2671 17.9009C51.8114 17.4224 51.0537 17.1831 49.9941 17.1831C48.6042 17.1831 47.5617 17.7756 46.8667 18.9604V32H41.9277V13.5088H46.5762ZM61.9741 32V7.11719H70.6899C73.7091 7.11719 75.9992 7.69824 77.5601 8.86035C79.1209 10.0111 79.9014 11.703 79.9014 13.936C79.9014 15.1551 79.5881 16.2318 78.9614 17.166C78.3348 18.0889 77.4632 18.7668 76.3467 19.1997C77.6227 19.5187 78.6253 20.1624 79.3545 21.1309C80.0951 22.0993 80.4653 23.2842 80.4653 24.6855C80.4653 27.0781 79.702 28.8896 78.1753 30.1201C76.6486 31.3506 74.4725 31.9772 71.647 32H61.9741ZM67.1011 21.165V27.8813H71.4932C72.7008 27.8813 73.6408 27.5965 74.313 27.0269C74.9966 26.4458 75.3384 25.6483 75.3384 24.6343C75.3384 22.3556 74.1592 21.1992 71.8008 21.165H67.1011ZM67.1011 17.542H70.895C73.4813 17.4964 74.7744 16.4653 74.7744 14.4487C74.7744 13.3208 74.444 12.5119 73.7832 12.022C73.1338 11.5207 72.1027 11.27 70.6899 11.27H67.1011V17.542ZM95.0771 30.1201C93.8581 31.6012 92.1719 32.3418 90.0186 32.3418C88.0361 32.3418 86.5208 31.7721 85.4727 30.6328C84.4359 29.4935 83.9061 27.8244 83.8833 25.6255V13.5088H88.8223V25.4546C88.8223 27.38 89.6995 28.3428 91.4541 28.3428C93.1289 28.3428 94.2796 27.7617 94.9062 26.5996V13.5088H99.8623V32H95.2139L95.0771 30.1201ZM111.278 28.3599C112.19 28.3599 112.93 28.1092 113.5 27.6079C114.07 27.1066 114.366 26.4401 114.389 25.6084H119.02C119.009 26.8617 118.667 28.0124 117.995 29.0605C117.322 30.0973 116.4 30.9062 115.226 31.4873C114.064 32.057 112.777 32.3418 111.364 32.3418C108.721 32.3418 106.636 31.5044 105.109 29.8296C103.582 28.1434 102.819 25.8192 102.819 22.8569V22.5322C102.819 19.6839 103.576 17.411 105.092 15.7134C106.607 14.0158 108.686 13.167 111.33 13.167C113.642 13.167 115.494 13.8278 116.884 15.1494C118.285 16.4596 118.997 18.2085 119.02 20.396H114.389C114.366 19.439 114.07 18.6642 113.5 18.0718C112.93 17.4679 112.178 17.166 111.244 17.166C110.093 17.166 109.222 17.5876 108.629 18.4307C108.048 19.2624 107.758 20.6182 107.758 22.498V23.0107C107.758 24.9134 108.048 26.2806 108.629 27.1123C109.21 27.944 110.093 28.3599 111.278 28.3599ZM128.556 24.583L126.779 26.3604V32H121.84V5.75H126.779V20.2935L127.736 19.063L132.47 13.5088H138.4L131.718 21.2163L138.981 32H133.307L128.556 24.583ZM150.551 26.8901C150.551 26.2863 150.249 25.8135 149.645 25.4717C149.053 25.1185 148.096 24.8052 146.774 24.5317C142.376 23.6089 140.177 21.7404 140.177 18.9263C140.177 17.2856 140.855 15.9185 142.211 14.8247C143.578 13.7196 145.361 13.167 147.56 13.167C149.907 13.167 151.781 13.7196 153.183 14.8247C154.595 15.9299 155.302 17.3654 155.302 19.1313H150.363C150.363 18.425 150.135 17.8439 149.679 17.3882C149.223 16.9211 148.511 16.6875 147.543 16.6875C146.711 16.6875 146.068 16.8755 145.612 17.2515C145.156 17.6274 144.928 18.106 144.928 18.687C144.928 19.2339 145.185 19.6782 145.697 20.02C146.221 20.3504 147.099 20.641 148.329 20.8916C149.56 21.1309 150.596 21.4043 151.439 21.7119C154.049 22.6689 155.353 24.3267 155.353 26.6851C155.353 28.3713 154.63 29.7384 153.183 30.7866C151.736 31.8234 149.867 32.3418 147.577 32.3418C146.028 32.3418 144.649 32.0684 143.441 31.5215C142.245 30.9632 141.305 30.2056 140.622 29.2485C139.938 28.2801 139.596 27.2376 139.596 26.1211H144.279C144.324 26.9984 144.649 27.6706 145.253 28.1377C145.857 28.6048 146.666 28.8384 147.68 28.8384C148.625 28.8384 149.337 28.6618 149.816 28.3086C150.306 27.944 150.551 27.4712 150.551 26.8901Z" fill="black"/>
</mask>
<g mask="url(#mask0)">
<ellipse cx="75.5" cy="36.5" rx="123.5" ry="86.5" fill="#F5F5F5"/>
</g>
</svg>
